PathFileType	4	(X/Y/Z)	TVC_20_BWA5_walk_RCNL2025.trc
DataRate	CameraRate	NumFrames	NumMarkers	Units	OrigDataRate	OrigDataStartFrame	OrigNumFrames
100	100	10	27	mm	100	111	220
Frame#	Time	R_Shoulder			L_Shoulder			C7			J_Notch			R_Elbow			L_Elbow			R_Wrist			L_Wrist			R_Asis			L_Asis			R_Psis			L_Psis			Sacral			Thoracic			Sternum			R_Thigh_Lateral			R_Knee_Lateral			R_Shank_Lateral			R_Ankle_Lateral			R_Heel			R_Toe			L_Thigh_Lateral			L_Knee_Lateral			L_Shank_Lateral			L_Ankle_Lateral			L_Heel			L_Toe		
		X1	Y1	Z1	X2	Y2	Z2	X3	Y3	Z3	X4	Y4	Z4	X5	Y5	Z5	X6	Y6	Z6	X7	Y7	Z7	X8	Y8	Z8	X9	Y9	Z9	X10	Y10	Z10	X11	Y11	Z11	X12	Y12	Z12	X13	Y13	Z13	X14	Y14	Z14	X15	Y15	Z15	X16	Y16	Z16	X17	Y17	Z17	X18	Y18	Z18	X19	Y19	Z19	X20	Y20	Z20	X21	Y21	Z21	X22	Y22	Z22	X23	Y23	Z23	X24	Y24	Z24	X25	Y25	Z25	X26	Y26	Z26	X27	Y27	Z27
111	1.10000000	-595.212585	1349.112427	379.215668	-662.959290	1379.237061	22.028650	-656.620300	1414.538940	216.280762	-539.058899	1284.702637	189.956970	-684.460388	1053.616577	490.061676	-673.090942	1078.499634	-107.058922	-541.879089	835.215393	473.881882	-460.541885	930.765289	-74.774426	-561.184875	959.437805	318.896606	-613.721802	969.175903	43.886311	-728.674988	955.933777	258.246735	-757.843323	954.067383	174.432297	-743.259155	955.000580	216.339516	-768.888794	1189.270508	215.764221	-527.547119	1142.800659	170.503128	-476.247925	657.042786	390.563568	-384.495697	482.543121	312.533203	-389.263550	297.909851	365.177917	-365.145538	70.198997	283.939240	-410.933990	46.385700	236.779053	-216.411331	38.517578	258.060211	-752.379883	620.721985	-16.140379	-768.664124	448.846954	52.312580	-903.037720	315.778839	11.918421	-1060.571167	136.418701	109.314575	-1100.523438	160.782654	149.323639	-970.305542	33.615047	147.409592
112	1.11000000	-579.034790	1349.063477	380.367523	-647.033325	1380.182739	23.261354	-640.322205	1415.169067	217.789352	-522.688110	1285.492798	191.487686	-666.911560	1052.845337	490.492462	-661.583130	1078.849121	-104.164581	-524.740723	834.186554	473.916977	-449.911011	929.544830	-73.808146	-545.787292	960.865356	319.710236	-597.306946	968.909912	44.896946	-713.233521	957.023987	258.422974	-742.162781	954.091370	174.252655	-727.698151	955.557678	216.337814	-753.069336	1190.069580	216.099808	-511.405548	1143.401611	171.513901	-457.961212	660.746704	391.095856	-368.695282	483.523407	313.003754	-374.700439	299.420959	366.193939	-362.942719	70.352371	283.603088	-409.894196	47.352489	237.070847	-214.813690	36.073238	256.743622	-733.594788	619.445129	-16.928431	-747.927673	446.731110	50.138943	-886.003235	317.276154	9.808679	-1048.915039	143.761749	106.315903	-1087.081299	171.016953	145.974197	-967.942078	34.134659	147.170364
113	1.12000000	-562.887268	1349.259644	381.415375	-631.149780	1381.300415	24.387974	-624.042114	1416.044189	219.183060	-506.432983	1286.195312	192.886887	-649.229126	1052.309326	490.875061	-650.308228	1079.360718	-101.261116	-507.306335	833.511871	473.804123	-439.743347	928.179962	-72.947958	-530.639099	962.482483	320.586182	-581.111206	968.768982	45.912754	-698.014343	958.362000	258.562042	-726.710632	954.252258	174.049225	-712.362488	956.307129	216.305634	-737.369629	1191.159912	216.382126	-495.457367	1144.134399	172.480347	-440.769653	663.852966	391.745575	-354.108582	484.139984	313.376343	-361.528229	300.359436	366.828125	-361.101929	70.626328	283.187683	-409.135315	48.192616	237.186249	-213.622208	34.713825	255.636017	-713.519409	617.574890	-17.763214	-725.601318	444.389374	48.146946	-866.958191	318.403900	7.798068	-1035.583496	151.525864	103.328331	-1071.815430	181.645569	142.643890	-964.653992	35.496914	146.674423
114	1.13000000	-546.799500	1349.709717	382.345276	-615.360840	1382.580444	25.396463	-607.816895	1417.160156	220.442810	-490.349365	1286.871826	194.071030	-631.456177	1052.030640	491.215332	-639.236816	1080.034180	-98.375267	-489.608551	833.221558	473.538315	-430.016769	926.681091	-72.188637	-515.755493	964.253174	321.509125	-565.197693	968.769409	46.908504	-683.035889	959.938416	258.679474	-711.514160	954.570618	173.855423	-697.275024	957.254517	216.267448	-721.815552	1192.533081	216.623474	-479.744141	1144.996094	173.374649	-425.377350	665.821167	392.457916	-340.852478	484.343353	313.631805	-350.158264	300.611389	367.007233	-359.571716	70.927132	282.694580	-408.592194	48.851101	237.107712	-212.756836	34.115398	254.697922	-692.141907	615.182556	-18.580322	-701.761353	441.929565	46.404449	-845.881775	319.175995	5.964312	-1020.545166	159.677933	100.420639	-1054.783203	192.518005	139.423782	-959.914856	37.959885	145.795471
115	1.14000000	-530.799255	1350.421997	383.147034	-599.713867	1384.014404	26.277737	-591.680054	1418.511963	221.553314	-474.508179	1287.615479	194.981140	-613.635620	1052.029663	491.519806	-628.342590	1080.870850	-95.531639	-471.683655	833.342072	473.116730	-420.710617	925.064423	-71.526087	-501.150024	966.147278	322.464447	-549.612061	968.934692	47.862679	-668.311523	961.744080	258.788025	-696.590210	955.072937	173.695908	-682.450867	958.408508	216.241966	-706.427856	1194.178467	216.835373	-464.298157	1145.988159	174.174088	-412.241913	666.335144	393.179138	-328.980194	484.134888	313.765167	-340.807709	300.210968	366.773773	-358.316254	71.192924	282.147766	-408.210785	49.309441	236.857300	-212.148605	33.977188	253.906525	-669.546997	612.449829	-19.298559	-676.536194	439.494385	44.960678	-822.845093	319.661438	4.377037	-1003.792542	168.139236	97.658958	-1036.084961	203.426941	136.408157	-953.111084	41.678082	144.434662
116	1.15000000	-514.911316	1351.402832	383.814148	-584.248962	1385.595459	27.025959	-575.660278	1420.093994	222.503464	-458.964874	1288.474731	195.610611	-595.808777	1052.324097	491.795258	-617.602661	1081.874023	-92.752014	-453.570404	833.894928	472.538666	-411.806717	923.351105	-70.958006	-486.835144	968.143921	323.439880	-534.380371	969.293884	48.759693	-653.848816	963.769592	258.896790	-681.945251	955.788818	173.584702	-667.897034	959.779205	216.240746	-691.221802	1196.083374	217.028214	-449.141388	1147.116333	174.862747	-401.388245	665.450562	393.867493	-318.485962	483.562531	313.784760	-333.486481	299.314026	366.258759	-357.308258	71.393600	281.584869	-407.951874	49.581364	236.488708	-211.736374	34.059887	253.249390	-645.922668	609.649902	-19.839569	-650.098083	437.250824	43.840031	-798.011047	319.981842	3.086882	-985.331543	176.768478	95.100410	-1015.843994	214.110046	133.682648	-943.625549	46.635986	142.548203
117	1.16000000	-499.157318	1352.656738	384.344116	-568.996826	1387.317505	27.638659	-559.781372	1421.898926	223.286392	-443.737244	1289.475342	196.006027	-578.014465	1052.927856	492.048370	-606.998169	1083.048462	-90.055084	-435.308975	834.895691	471.805649	-403.290085	921.565674	-70.484253	-472.821075	970.231995	324.426727	-519.508423	969.878906	49.591633	-639.649597	966.004456	259.011078	-667.575684	956.748047	173.524979	-653.612640	961.376251	216.268028	-676.206970	1198.232788	217.210938	-434.284668	1148.388550	175.432587	-392.408539	663.606689	394.496246	-309.315582	482.709686	313.709412	-328.014099	298.146851	365.634247	-356.525757	71.525543	281.049072	-407.787903	49.702576	236.070145	-211.465897	34.200867	252.718765	-621.541016	607.105347	-20.147795	-622.652100	435.376282	43.040173	-771.623413	320.300751	2.116648	-965.172668	185.353012	92.787209	-994.186707	224.261505	131.310211	-930.929321	52.617561	140.164673
118	1.17000000	-483.555084	1354.184937	384.737915	-553.977173	1389.174194	28.116652	-544.061829	1423.916626	223.899445	-428.798035	1290.648682	196.210876	-560.288208	1053.850098	492.285645	-596.513672	1084.399536	-87.456474	-416.939545	836.353027	470.921158	-395.149384	919.734497	-70.106829	-459.114624	972.408325	325.420166	-504.983337	970.720825	50.359039	-625.710144	968.436279	259.132965	-653.468750	957.977112	173.510117	-639.589447	963.206696	216.321541	-661.387817	1200.608643	217.390900	-419.727875	1149.813965	175.883774	-384.600159	661.489136	395.048737	-301.380493	481.678741	313.564636	-324.064667	296.943298	365.060944	-355.948547	71.603424	280.581146	-407.697937	49.719196	235.666077	-211.290695	34.310280	252.306747	-596.719788	605.132935	-20.203650	-594.423279	434.043030	42.534832	-743.983398	320.803925	1.455353	-943.329041	193.614243	90.743347	-971.226868	233.552277	129.320999	-914.656921	59.228954	137.386963
119	1.18000000	-468.118225	1355.984131	384.999817	-539.198730	1391.158081	28.463781	-528.515015	1426.133911	224.343842	-414.110962	1292.042358	196.243683	-542.661194	1055.093994	492.513214	-586.136841	1085.932007	-84.968925	-398.501251	838.268280	469.890610	-387.376587	917.883820	-69.829556	-445.716919	974.674194	326.419098	-490.776001	971.846252	51.070480	-612.021057	971.049927	259.262146	-639.604492	959.496277	173.526260	-625.812775	965.273102	216.394203	-646.763550	1203.189453	217.573837	-405.460571	1151.400269	176.224167	-377.157867	659.803467	395.510956	-294.571472	480.573639	313.377838	-321.236816	295.889252	364.649323	-355.553864	71.650253	280.213074	-407.664673	49.678230	235.324677	-211.174622	34.354374	252.002518	-571.775330	603.986816	-20.024727	-565.642761	433.402740	42.280785	-715.416992	321.671600	1.058073	-919.819092	201.227676	88.974335	-947.056641	241.655365	127.709442	-894.646057	65.965157	134.375931
120	1.19000000	-452.856018	1358.046021	385.136902	-524.659790	1393.259399	28.686485	-513.149048	1428.532959	224.624359	-399.649506	1293.690430	196.127151	-525.160217	1056.655640	492.736786	-575.857544	1087.648315	-82.602661	-380.031082	840.634430	468.720840	-379.966095	916.037750	-69.657631	-432.621429	977.031189	327.424561	-476.845215	973.273743	51.740917	-598.567871	973.826965	259.396851	-625.957153	961.316345	173.555435	-612.262512	967.571655	216.476143	-632.328979	1205.950317	217.763931	-391.463562	1153.152344	176.468094	-369.394836	659.053162	395.869965	-288.769196	479.484985	313.173737	-319.126831	295.090851	364.444000	-355.315094	71.688660	279.963379	-407.673370	49.621113	235.073059	-211.093246	34.335403	251.792480	-546.981079	603.816040	-19.655436	-536.535278	433.573669	42.226814	-686.236633	323.046753	0.853566	-894.673096	207.855103	87.469604	-921.746338	248.271912	126.438950	-870.934204	72.299614	131.317230
